<svg width="20" height="20" viewBox="0 0 20 20" fill="none" xmlns="http://www.w3.org/2000/svg">
  <path d="M10 2.2C5.7 2.2 2.2 5.7 2.2 10C2.2 13.5 4.5 16.4 7.6 17.5V14.9C6.4 15.2 5.5 14.4 5.2 13.5C5 13 4.6 12.6 4.2 12.4C3.8 12.1 4.2 12.1 4.2 12.1C5 12.2 5.4 12.9 5.6 13.2C6.3 14.4 7.4 14.1 7.8 13.9C7.9 13.4 8.1 13 8.4 12.7C6.1 12.4 3.8 11.6 3.8 8.1C3.8 7.1 4.2 6.3 4.8 5.6C4.7 5.3 4.4 4.3 4.9 3C4.9 3 5.7 2.7 7.5 3.9C8.2 3.7 9.1 3.6 10 3.6C10.9 3.6 11.8 3.7 12.5 3.9C14.3 2.7 15.1 3 15.1 3C15.6 4.3 15.3 5.3 15.2 5.6C15.8 6.3 16.2 7.1 16.2 8.1C16.2 11.6 13.9 12.4 11.6 12.7C12 13.1 12.3 13.8 12.3 14.8V17.5C15.4 16.4 17.8 13.5 17.8 10C17.8 5.7 14.3 2.2 10 2.2Z" fill="currentColor"/>
</svg>
